<svg width="1440" height="583" viewBox="0 0 1440 583" fill="none" xmlns="http://www.w3.org/2000/svg">
<rect width="1440" height="460" transform="matrix(1 0 0 -1 0 460)" fill="#990000"/>
<path d="M1174.69 385.727C1174.81 385.847 1175.05 385.847 1175.29 385.727L1183.33 377.691C1183.45 377.571 1183.45 377.211 1183.33 377.091L1140.51 334.153L1140.27 333.913C1140.15 333.793 1139.91 333.793 1139.67 333.913L1135.95 337.631L1115.32 317.001L1126.48 305.847C1126.6 305.727 1126.6 305.487 1126.48 305.247C1126.36 305.127 1126 305.127 1125.88 305.247L1114.36 316.762C1114.24 316.882 1114.24 317.121 1114.36 317.361L1135.35 338.351L1131.63 342.069C1131.51 342.189 1131.51 342.309 1131.51 342.309V342.429V342.549L1174.69 385.727Z" fill="white"/>
<path d="M1412.05 130.974L1405.34 137.691C1405.22 137.811 1405.22 138.051 1405.34 138.291C1405.46 138.411 1405.82 138.411 1405.94 138.291L1412.65 131.574C1412.77 131.454 1412.77 131.094 1412.65 130.974C1412.41 130.735 1412.17 130.735 1412.05 130.974Z" fill="white"/>
<path d="M1401.98 141.049L1395.26 147.766C1395.14 147.886 1395.14 148.126 1395.26 148.366C1395.38 148.486 1395.62 148.486 1395.86 148.366L1402.58 141.649C1402.7 141.529 1402.7 141.289 1402.58 141.049C1402.34 140.81 1402.1 140.81 1401.98 141.049Z" fill="white"/>
<path d="M1391.9 151.005L1385.19 157.721C1385.07 157.841 1385.07 158.081 1385.19 158.321C1385.31 158.441 1385.55 158.441 1385.79 158.321L1392.5 151.604C1392.62 151.484 1392.62 151.244 1392.5 151.005C1392.38 150.885 1392.14 150.885 1391.9 151.005Z" fill="white"/>
<path d="M1422.13 120.9L1415.41 127.616C1415.29 127.736 1415.29 127.976 1415.41 128.216C1415.53 128.336 1415.77 128.336 1416.01 128.216L1422.73 121.499C1422.85 121.379 1422.85 121.139 1422.73 120.9C1422.49 120.78 1422.25 120.78 1422.13 120.9Z" fill="white"/>
<path d="M1381.83 161.079L1375.11 167.796C1374.99 167.916 1374.99 168.276 1375.11 168.396C1375.23 168.516 1375.59 168.516 1375.71 168.396L1382.43 161.679C1382.55 161.559 1382.55 161.199 1382.43 161.079C1382.31 160.96 1382.07 160.96 1381.83 161.079Z" fill="white"/>
<path d="M1365.16 178.351C1365.28 178.471 1365.52 178.471 1365.76 178.351L1372.47 171.634C1372.59 171.514 1372.59 171.274 1372.47 171.035C1372.35 170.915 1372.11 170.915 1371.87 171.035L1365.16 177.751C1365.04 177.991 1365.04 178.231 1365.16 178.351Z" fill="white"/>
<path d="M1432.08 110.825L1425.37 117.541C1425.25 117.661 1425.25 117.901 1425.37 118.141C1425.49 118.261 1425.73 118.261 1425.97 118.141L1432.68 111.424C1432.8 111.304 1432.8 111.064 1432.68 110.825C1432.56 110.705 1432.32 110.705 1432.08 110.825Z" fill="white"/>
<path d="M1361.8 181.229L1355.08 187.946C1354.96 188.066 1354.96 188.306 1355.08 188.546C1355.2 188.666 1355.44 188.666 1355.68 188.546L1362.4 181.829C1362.52 181.709 1362.52 181.469 1362.4 181.229C1362.16 180.99 1361.92 180.99 1361.8 181.229Z" fill="white"/>
<path d="M1136.79 74.7227C1135.59 75.9221 1135.95 77.4813 1137.75 79.4003C1139.67 81.3194 1141.23 81.6792 1142.43 80.4798C1143.63 79.2804 1143.27 77.7212 1141.35 75.8021C1139.55 73.8831 1137.99 73.5233 1136.79 74.7227ZM1142.19 78.4408C1142.31 79.0405 1142.31 79.4003 1141.83 79.7601C1141.11 80.4798 1139.91 80.12 1138.47 78.5607C1136.91 77.0015 1136.55 75.9221 1137.27 75.2024C1137.99 74.4828 1139.07 74.8426 1140.63 76.4018C1141.59 77.2414 1142.07 77.961 1142.19 78.4408Z" fill="white"/>
<path d="M1132.11 82.039L1131.99 83.1185C1131.87 84.5578 1131.87 85.5173 1131.99 85.997C1132.11 86.4768 1132.35 86.8366 1132.59 87.0765C1133.07 87.5562 1133.55 87.7961 1134.15 87.6762C1134.75 87.6762 1135.35 87.3164 1135.83 86.8366C1136.91 85.7572 1137.03 84.5577 1136.07 83.4783L1135.35 84.078C1135.71 84.4378 1135.83 84.6777 1135.83 85.1575C1135.83 85.6372 1135.71 85.997 1135.35 86.3569C1135.11 86.5967 1134.75 86.7167 1134.39 86.8366C1134.03 86.8366 1133.67 86.7167 1133.31 86.4768C1133.07 86.2369 1132.95 85.8771 1132.83 85.3973C1132.71 84.9176 1132.71 84.078 1132.83 82.8786C1132.95 81.1994 1132.83 80 1132.23 79.4003L1128.64 83.1185L1129.24 83.7182L1131.99 80.9595C1132.11 81.3194 1132.11 81.6792 1132.11 82.039Z" fill="white"/>
<path d="M1355 160.213L1355.76 160.981L1356.53 160.223L1355.77 159.455L1355 160.213Z" fill="white"/>
<path d="M1351.12 163.958L1352.44 165.277L1351.72 165.997L1352.32 166.597L1353.04 165.877L1356.64 169.475L1357.24 168.876L1356.16 162.759L1355.56 162.159L1353.16 164.558L1351.84 163.238L1351.12 163.958ZM1355.44 163.478L1356.16 167.676L1353.64 165.157L1355.44 163.478Z" fill="white"/>
<path d="M1347.77 167.076C1346.57 168.276 1346.93 169.835 1348.73 171.754C1350.64 173.673 1352.2 174.033 1353.4 172.834C1354.6 171.634 1354.24 170.075 1352.32 168.156C1350.52 166.237 1348.97 165.877 1347.77 167.076ZM1353.16 170.915C1353.28 171.514 1353.16 171.874 1352.8 172.234C1352.08 172.954 1350.88 172.594 1349.45 171.035C1347.89 169.475 1347.53 168.396 1348.25 167.676C1348.97 166.957 1350.16 167.316 1351.6 168.876C1352.56 169.715 1353.04 170.315 1353.16 170.915Z" fill="white"/>
<path d="M1220.03 212.414C1220.15 212.294 1220.15 212.054 1220.03 211.814C1219.91 211.694 1219.67 211.694 1219.43 211.814L1210.91 220.33C1210.79 220.45 1210.79 220.69 1210.91 220.93C1211.03 221.05 1211.39 221.05 1211.51 220.93L1220.03 212.414Z" fill="white"/>
<path d="M1152.02 280.42L1203.12 229.325C1203.24 229.205 1203.24 228.966 1203.12 228.726C1203 228.606 1202.76 228.606 1202.52 228.726L1151.42 279.82C1151.3 279.94 1151.3 280.18 1151.42 280.42C1151.54 280.54 1151.78 280.54 1152.02 280.42Z" fill="white"/>
<path d="M1134.99 297.451L1143.51 288.936C1143.63 288.816 1143.63 288.576 1143.51 288.336C1143.39 288.216 1143.15 288.216 1142.91 288.336L1134.39 296.852C1134.27 296.972 1134.27 297.331 1134.39 297.451C1134.51 297.571 1134.75 297.571 1134.99 297.451Z" fill="white"/>
<path d="M1356.16 75.6822C1356.04 75.5622 1355.68 75.5622 1355.56 75.6822L1304.47 126.777C1304.35 126.897 1304.35 127.256 1304.47 127.376C1304.59 127.496 1304.95 127.496 1305.07 127.376L1356.16 76.2819C1356.28 76.042 1356.28 75.8021 1356.16 75.6822Z" fill="white"/>
<path d="M1296.07 135.172L1287.56 143.688C1287.44 143.808 1287.44 144.168 1287.56 144.288C1287.68 144.408 1288.04 144.408 1288.16 144.288L1296.67 135.772C1296.79 135.652 1296.79 135.412 1296.67 135.172C1296.43 135.052 1296.19 135.052 1296.07 135.172Z" fill="white"/>
<path d="M1339.97 268.426C1340.09 268.306 1340.09 268.066 1339.97 267.826C1339.85 267.706 1339.49 267.706 1339.37 267.826L1332.53 274.663C1332.41 274.783 1332.41 275.022 1332.53 275.262C1332.65 275.382 1332.89 275.382 1333.13 275.262L1339.97 268.426Z" fill="white"/>
<path d="M1284.92 322.399L1278.08 329.235C1277.96 329.355 1277.96 329.595 1278.08 329.835C1278.2 330.075 1278.44 329.955 1278.68 329.835L1285.52 322.999C1285.64 322.879 1285.64 322.519 1285.52 322.399C1285.4 322.159 1285.04 322.159 1284.92 322.399Z" fill="white"/>
<path d="M1271.36 335.952L1270.52 336.792C1270.4 336.912 1270.4 337.271 1270.52 337.391C1270.64 337.511 1271 337.511 1271.12 337.391L1271.96 336.552C1272.08 336.432 1272.08 336.072 1271.96 335.952C1271.72 335.832 1271.48 335.832 1271.36 335.952Z" fill="white"/>
<path d="M1326.3 281.499C1326.18 281.379 1325.94 281.379 1325.7 281.499L1291.63 315.562C1291.51 315.682 1291.51 315.922 1291.63 316.162C1291.75 316.282 1291.99 316.282 1292.23 316.162L1326.3 282.099C1326.54 281.859 1326.54 281.619 1326.3 281.499Z" fill="white"/>
<path d="M1063.75 114.783C1063.63 114.903 1063.63 115.142 1063.75 115.382C1063.87 115.502 1064.11 115.502 1064.35 115.382L1071.18 108.546C1071.3 108.426 1071.3 108.066 1071.18 107.946C1071.06 107.826 1070.82 107.826 1070.58 107.946L1063.75 114.783Z" fill="white"/>
<path d="M1166.42 12.7137C1166.3 12.5937 1166.06 12.5937 1165.82 12.7137L1131.87 46.7766C1131.75 46.8966 1131.75 47.1365 1131.87 47.3763C1131.99 47.4963 1132.35 47.4963 1132.47 47.3763L1166.54 13.3134C1166.54 13.0735 1166.54 12.8336 1166.42 12.7137Z" fill="white"/>
<path d="M1056.91 121.619L1056.07 122.579C1055.95 122.699 1055.95 122.938 1056.07 123.178C1056.19 123.298 1056.55 123.298 1056.67 123.178L1057.63 122.339C1057.75 122.219 1057.75 121.979 1057.63 121.739C1057.39 121.499 1057.15 121.499 1056.91 121.619Z" fill="white"/>
<path d="M963.358 0.839578L956.522 7.67616C956.402 7.7961 956.402 8.03598 956.522 8.27586C956.642 8.3958 956.882 8.3958 957.121 8.27586L963.958 1.43928C964.078 1.31934 964.078 1.07946 963.958 0.839578C963.838 0.599698 963.598 0.599698 963.358 0.839578Z" fill="white"/>
<path d="M949.805 14.3928L948.965 15.2324C948.846 15.3523 948.846 15.5922 948.965 15.8321C949.085 15.952 949.325 15.952 949.565 15.8321L950.405 14.9925C950.525 14.8725 950.525 14.5127 950.405 14.3928C950.165 14.2728 949.925 14.2728 949.805 14.3928Z" fill="white"/>
<path d="M1283.6 120.18C1283.48 120.3 1283.48 120.66 1283.6 120.78L1290.43 127.616C1290.55 127.736 1290.79 127.736 1291.03 127.616C1291.15 127.496 1291.15 127.136 1291.03 127.016L1284.2 120.18C1283.96 119.94 1283.72 119.94 1283.6 120.18Z" fill="white"/>
<path d="M1229.15 65.6072C1229.03 65.7271 1229.03 66.087 1229.15 66.2069L1235.98 73.0435C1236.1 73.1634 1236.34 73.1634 1236.58 73.0435C1236.7 72.9235 1236.7 72.6837 1236.58 72.4438L1229.75 65.6072C1229.51 65.4873 1229.27 65.4873 1229.15 65.6072Z" fill="white"/>
<path d="M1242.7 79.2804C1242.58 79.4003 1242.58 79.7601 1242.7 79.8801L1276.76 113.943C1276.88 114.063 1277.12 114.063 1277.36 113.943C1277.48 113.823 1277.48 113.583 1277.36 113.343L1243.3 79.2804C1243.18 79.1604 1242.82 79.1604 1242.7 79.2804Z" fill="white"/>
<path d="M1174.69 11.2744C1174.57 11.3943 1174.57 11.7541 1174.69 11.8741L1181.53 18.7106C1181.65 18.8306 1181.89 18.8306 1182.13 18.7106C1182.25 18.5907 1182.25 18.3508 1182.13 18.1109L1175.29 11.2744C1175.05 11.0345 1174.81 11.0345 1174.69 11.2744Z" fill="white"/>
<path d="M1188.25 24.8276C1188.13 24.9475 1188.13 25.3074 1188.25 25.4273L1222.31 59.4903C1222.43 59.6102 1222.79 59.6102 1222.91 59.4903C1223.03 59.3703 1223.03 59.1304 1222.91 58.8906L1188.85 24.8276C1188.73 24.7077 1188.49 24.7077 1188.25 24.8276Z" fill="white"/>
<path d="M1237.3 181.109C1237.42 180.989 1237.42 180.63 1237.3 180.51L1230.46 173.673C1230.34 173.553 1229.98 173.553 1229.86 173.673C1229.75 173.793 1229.75 174.033 1229.86 174.273L1236.7 181.109C1236.94 181.229 1237.18 181.229 1237.3 181.109Z" fill="white"/>
<path d="M1332.05 276.342C1332.17 276.462 1332.41 276.462 1332.65 276.342C1332.77 276.222 1332.77 275.982 1332.65 275.742L1298.59 241.679C1298.47 241.559 1298.23 241.559 1297.99 241.679C1297.87 241.799 1297.87 242.039 1297.99 242.279L1332.05 276.342Z" fill="white"/>
<path d="M1345.61 290.015C1345.73 290.135 1345.97 290.135 1346.21 290.015C1346.33 289.895 1346.33 289.535 1346.21 289.415L1339.37 282.579C1339.25 282.459 1339.01 282.459 1338.77 282.579C1338.65 282.699 1338.65 282.939 1338.77 283.178L1345.61 290.015Z" fill="white"/>
<path d="M1386.51 330.795C1386.63 330.915 1386.87 330.915 1387.11 330.795C1387.23 330.675 1387.23 330.435 1387.11 330.195L1353.04 296.132C1352.92 296.012 1352.56 296.012 1352.44 296.132C1352.32 296.252 1352.32 296.612 1352.44 296.732L1386.51 330.795Z" fill="white"/>
<path d="M1400.06 344.468C1400.18 344.588 1400.54 344.588 1400.66 344.468C1400.78 344.348 1400.78 343.988 1400.66 343.868L1393.82 337.031C1393.7 336.912 1393.34 336.912 1393.22 337.031C1393.1 337.151 1393.1 337.391 1393.22 337.631L1400.06 344.468Z" fill="white"/>
<path d="M1291.75 235.562C1291.87 235.442 1291.87 235.082 1291.75 234.963L1284.92 228.126C1284.8 228.006 1284.56 228.006 1284.32 228.126C1284.2 228.246 1284.2 228.486 1284.32 228.726L1291.15 235.562C1291.39 235.682 1291.63 235.682 1291.75 235.562Z" fill="white"/>
<path d="M1434.96 172.354L1434.72 172.594L1429.57 177.631L1406.9 200.3L1360 153.403L1358.32 151.724L1360 150.045L1362.04 148.006C1362.16 147.886 1362.16 147.646 1362.04 147.406C1361.92 147.286 1361.56 147.286 1361.44 147.406L1359.4 149.445L1358.08 150.765V150.285C1358.08 150.045 1357.96 149.925 1357.72 149.925C1357.6 149.925 1357.48 149.925 1357.48 150.045C1357.36 150.165 1357.36 150.285 1357.36 150.405V150.885L1356.04 149.565L1352.68 146.207C1352.56 146.087 1352.2 146.087 1352.08 146.207C1351.96 146.327 1351.96 146.567 1352.08 146.807L1355.44 150.165L1357.12 151.844L1355.44 153.523C1355.32 153.643 1355.32 154.003 1355.44 154.123C1355.56 154.243 1355.92 154.243 1356.04 154.123L1357.36 152.804V153.283C1357.36 153.523 1357.48 153.763 1357.72 153.763C1357.96 153.763 1358.08 153.523 1358.08 153.283V152.804L1359.4 154.123L1361.32 156.042C1360.24 155.442 1359.28 155.562 1358.56 156.402C1357.36 157.601 1357.72 159.16 1359.64 161.079C1361.56 162.999 1363.12 163.358 1364.32 162.159C1365.16 161.319 1365.16 160.36 1364.68 159.4L1406.42 201.139L1400.78 206.777L1394.54 213.014C1384.83 209.295 1375.23 205.457 1365.64 201.619L1352.32 188.306L1345.49 181.469L1338.89 174.753L1338.77 174.633L1338.17 174.033C1338.53 173.433 1338.53 172.714 1338.17 172.114L1338.89 171.274C1339.01 171.154 1339.01 170.915 1338.89 170.675C1338.77 170.555 1338.41 170.555 1338.29 170.675L1337.57 171.394C1336.97 171.034 1336.25 171.034 1335.65 171.394L1334.93 170.675L1331.93 167.796L1331.57 167.436L1297.99 133.853C1297.87 133.733 1297.63 133.733 1297.39 133.853C1297.27 133.973 1297.27 134.213 1297.39 134.453L1330.97 168.036L1331.45 168.516L1334.45 171.394L1335.17 172.234C1334.81 172.834 1334.81 173.553 1335.17 174.153L1334.45 174.873L1332.41 176.912C1332.29 177.031 1332.29 177.271 1332.41 177.511C1332.53 177.631 1332.89 177.631 1333.01 177.511L1335.05 175.472L1335.89 174.753C1336.49 175.112 1337.21 175.112 1337.81 174.753L1338.41 175.352L1338.53 175.472L1345.13 182.189L1351.96 189.025L1363.84 200.9C1359.04 198.981 1354.36 196.942 1349.69 195.022L1352.68 192.024C1352.8 191.904 1352.8 191.664 1352.68 191.424C1352.56 191.304 1352.32 191.304 1352.08 191.424L1348.85 194.663C1333.01 188.186 1317.3 181.469 1301.71 174.633L1299.31 173.553C1290.07 169.475 1280.96 165.277 1271.72 161.079L1279.88 152.924C1280 152.804 1280 152.564 1279.88 152.324C1279.76 152.204 1279.52 152.204 1279.28 152.324L1271 160.72C1264.05 157.601 1257.21 154.363 1250.25 151.124C1250.25 151.005 1250.13 151.005 1250.13 151.005L1248.34 150.285C1220.51 137.091 1192.92 123.298 1165.7 108.906L1137.03 80.2399L1135.47 78.6807L1133.67 76.8816L1132.95 76.1619C1133.31 75.5622 1133.31 74.8426 1132.95 74.2429L1133.43 73.1634L1135.47 71.1244C1135.59 71.0045 1135.59 70.7646 1135.47 70.5247C1135.35 70.4048 1135.11 70.4048 1134.87 70.5247L1132.83 72.5637L1132.11 73.2834C1131.51 72.9235 1130.79 72.9235 1130.19 73.2834L1129.48 72.5637L1128.52 71.6042L1126.12 69.2054L1123.72 66.8066L1128.76 61.7691C1128.88 61.6492 1128.88 61.4093 1128.76 61.1694L1123.72 56.1319L1125.64 54.093C1125.76 53.973 1125.76 53.6132 1125.64 53.4933C1125.52 53.3733 1125.16 53.3733 1125.04 53.4933L1123.12 55.4123L1118.08 50.3748L1114 46.2968L1111.36 43.6582L1071.06 3.5982L1068.43 0.95952L1067.47 0H1066.27L1067.47 1.1994L1066.75 1.91904L1064.83 0H1063.63L1066.15 2.51874L1065.43 3.23838L1062.19 0H1060.99L1064.83 3.83808L1062.79 5.997L1060.39 3.5982L1056.79 0H1055.59L1059.67 4.07796L1062.31 6.71664L1064.95 9.35532L1066.39 10.7946L1073.22 17.6312L1080.06 24.4678L1102.49 46.8965L1105.13 49.5352L1107.53 51.934L1102.73 56.7316L1046.12 0H1044.92L1102.61 57.6912L1106.57 61.7691L1111.6 66.8066L1111.24 67.1664L1103.57 74.8426C1062.67 51.3343 1022.37 26.2669 982.789 0H981.469C994.543 8.75562 1007.74 17.3913 1020.93 25.7871L1017.33 31.5442C1001.14 21.2294 985.067 10.6747 969.115 0H967.676C983.988 11.0345 1000.54 21.8291 1017.09 32.3838L1020.33 34.4228C1044.2 49.5352 1068.43 64.048 1092.77 78.081C1092.77 78.081 1092.77 78.081 1092.77 78.2009L1096.13 80.1199L1097.45 80.8396L1087.02 91.2744C1037.72 62.8486 989.385 32.3838 942.249 0H940.81C988.186 32.6237 1036.76 63.3283 1086.54 91.994L1077.3 101.229C1077.18 101.349 1077.18 101.589 1077.3 101.829C1077.42 102.069 1077.66 101.949 1077.9 101.829L1087.26 92.4738C1104.89 102.669 1122.76 112.504 1140.63 122.099C1140.63 122.219 1140.75 122.219 1140.75 122.219L1147.35 125.817C1148.31 126.417 1149.39 126.897 1150.34 127.376L1148.79 130.375V130.495V130.615C1148.79 130.735 1148.79 130.735 1148.91 130.735L1189.69 151.844H1189.81C1189.93 151.844 1190.16 151.844 1190.28 151.604L1191.84 148.486C1192.8 148.966 1193.64 149.445 1194.48 149.805L1192.92 152.924V153.043V153.163C1192.92 153.163 1192.92 153.163 1193.04 153.283C1193.04 153.403 1193.04 153.403 1193.16 153.403L1235.62 174.153H1235.74C1235.86 174.153 1235.86 174.153 1235.86 174.153C1235.86 174.153 1235.86 174.153 1235.98 174.033C1235.98 174.033 1236.1 174.033 1236.1 173.913L1237.42 170.675C1238.38 171.154 1239.22 171.514 1240.18 171.994L1238.98 174.992V175.112C1238.98 175.232 1238.98 175.232 1238.98 175.232C1238.98 175.232 1238.98 175.232 1238.98 175.352C1238.98 175.352 1238.98 175.352 1239.1 175.472C1239.22 175.592 1239.1 175.472 1239.1 175.592L1250.01 180.63L1243.78 186.747C1243.66 186.747 1243.42 186.747 1243.3 186.867C1243.18 186.987 1243.18 187.106 1243.3 187.226L1227.71 202.819C1227.59 202.939 1227.59 203.178 1227.71 203.418C1227.83 203.538 1228.07 203.538 1228.31 203.418L1243.78 187.946L1277.36 221.529C1277.48 221.649 1277.84 221.649 1277.96 221.529C1278.08 221.409 1278.08 221.049 1277.96 220.93L1244.38 187.346L1250.73 180.99L1279.52 194.423C1279.64 194.423 1279.64 194.423 1279.76 194.423C1279.76 194.423 1279.76 194.423 1279.88 194.423L1280 194.303C1280 194.303 1280.12 194.303 1280.12 194.183L1281.56 191.064C1282.64 191.544 1283.72 192.024 1284.8 192.504C1314.78 205.817 1345.37 218.531 1376.07 230.525L1346.09 260.63C1345.97 260.75 1345.97 260.99 1346.09 261.229C1346.21 261.349 1346.57 261.349 1346.69 261.229L1377.03 230.885C1386.27 234.483 1395.5 238.081 1404.86 241.559L1406.06 242.759L1423.93 260.63L1424.65 261.349C1424.29 261.949 1424.29 262.669 1424.65 263.268L1423.93 264.108C1423.81 264.228 1423.81 264.468 1423.93 264.708C1424.05 264.828 1424.41 264.828 1424.53 264.708L1425.25 263.988C1425.85 264.348 1426.57 264.348 1427.17 263.988L1427.89 264.708L1431.24 268.066L1440 276.822V275.622L1431.84 267.466L1428.49 264.108L1427.77 263.388C1428.13 262.789 1428.13 262.069 1427.77 261.469L1428.49 260.75L1440 249.235V248.036L1427.89 260.15L1427.05 260.99C1426.45 260.63 1425.73 260.63 1425.13 260.99L1424.41 260.15L1406.54 242.279C1410.61 243.838 1414.69 245.277 1418.77 246.837L1423.09 248.396C1424.05 248.756 1425.01 249.115 1425.97 249.475C1426.21 249.595 1426.45 249.475 1426.45 249.235L1434.24 227.886C1434.24 227.766 1434.24 227.646 1434.24 227.526C1434.24 227.406 1434.12 227.406 1434 227.286L1426.93 224.648C1419.01 221.769 1410.97 218.771 1402.94 215.652L1412.17 206.417L1430.88 225.127C1431 225.247 1431.36 225.247 1431.48 225.127C1431.6 225.007 1431.6 224.648 1431.48 224.528L1412.65 205.817L1435.32 183.148L1439.88 178.591V176.432L1435.56 172.114L1437.72 169.955L1439.88 172.114V170.915L1438.32 169.355L1439.88 167.796V166.717L1437.48 169.115L1434.96 172.354ZM1363.6 161.439C1362.88 162.159 1361.68 161.799 1360.24 160.24C1358.68 158.681 1358.32 157.601 1359.04 156.882C1359.76 156.162 1360.96 156.522 1362.4 158.081C1363.24 158.921 1363.72 159.64 1363.84 160.12C1364.08 160.6 1363.96 161.079 1363.6 161.439ZM1335.53 173.313C1335.41 173.073 1335.41 172.834 1335.53 172.594L1335.89 172.954L1335.53 173.313ZM1336.01 173.913L1336.37 173.553L1336.73 173.913C1336.49 174.033 1336.25 174.033 1336.01 173.913ZM1336.37 172.474L1336.01 172.114C1336.25 171.994 1336.49 171.994 1336.73 172.114L1336.37 172.474ZM1337.33 173.313L1336.97 172.954L1337.33 172.594C1337.45 172.834 1337.45 173.073 1337.33 173.313ZM1425.97 263.748L1426.33 263.388L1426.69 263.748C1426.45 263.868 1426.09 263.868 1425.97 263.748ZM1427.17 262.549C1427.29 262.789 1427.29 263.028 1427.17 263.268L1426.81 262.909L1427.17 262.549ZM1426.69 261.949L1426.33 262.309L1425.97 261.949C1426.09 261.829 1426.45 261.829 1426.69 261.949ZM1425.73 262.909L1425.37 263.268C1425.25 263.028 1425.25 262.789 1425.37 262.549L1425.73 262.909ZM1401.86 207.616V215.052L1400.78 216.132V208.696L1401.86 207.616ZM1400.3 218.891L1401.38 217.811V222.849C1401.02 222.729 1400.66 222.609 1400.3 222.489V218.891ZM1400.06 209.535V216.972L1398.98 218.051V210.615L1400.06 209.535ZM1398.38 220.81L1399.46 219.73V222.129C1399.1 222.009 1398.74 221.889 1398.38 221.649V220.81ZM1397.06 212.414L1398.14 211.334V218.771L1397.06 219.85V212.414ZM1395.14 214.333L1396.22 213.253V220.69L1395.86 221.049L1395.14 220.33V214.333ZM1393.22 216.252L1394.3 215.172V219.61L1393.22 218.531V216.252ZM1393.22 214.093L1392.74 214.573V213.853C1392.86 213.973 1392.98 213.973 1393.22 214.093ZM1392.38 217.091V217.691L1392.02 217.331L1392.38 217.091ZM1390.82 213.133C1391.18 213.253 1391.54 213.373 1391.9 213.613V215.412L1391.06 216.252L1390.82 216.012V213.133ZM1388.91 212.414C1389.27 212.534 1389.63 212.654 1389.98 212.894V215.292L1388.91 214.213V212.414ZM1386.99 211.694C1387.35 211.814 1387.71 211.934 1388.07 212.174V213.493L1386.99 212.414V211.694ZM1386.15 211.334V211.454L1385.91 211.214C1386.03 211.214 1386.15 211.334 1386.15 211.334ZM1385.67 211.094C1385.55 211.094 1385.43 211.094 1385.43 211.214L1385.19 211.454V210.855C1385.31 210.975 1385.43 210.975 1385.67 211.094ZM1384.23 210.615V212.294L1383.15 213.373V210.135C1383.51 210.255 1383.87 210.495 1384.23 210.615ZM1381.35 209.415C1381.71 209.535 1382.07 209.655 1382.43 209.895V214.213L1381.47 215.172C1381.47 215.172 1381.35 215.172 1381.35 215.052V209.415ZM1379.43 208.696C1379.79 208.816 1380.15 208.936 1380.51 209.175V214.813C1380.15 214.693 1379.79 214.573 1379.43 214.333V208.696ZM1377.51 207.976C1377.87 208.096 1378.23 208.216 1378.59 208.456V214.093C1378.23 213.973 1377.99 213.853 1377.63 213.733L1377.51 213.613V207.976ZM1375.59 207.136C1375.95 207.256 1376.31 207.376 1376.67 207.616V212.774L1375.59 211.694V207.136ZM1375.59 212.774C1375.71 212.894 1375.59 212.774 1375.59 212.774V212.774ZM1373.79 206.417C1374.15 206.537 1374.51 206.657 1374.87 206.897V210.855L1373.79 209.775V206.417ZM1373.79 210.855L1374.87 211.934V212.414C1374.51 212.294 1374.15 212.174 1373.79 211.934V210.855ZM1371.87 205.697C1372.23 205.817 1372.59 205.937 1372.95 206.177V208.936L1371.87 207.856V205.697ZM1371.87 209.055L1372.95 210.135V211.814C1372.59 211.694 1372.23 211.454 1371.87 211.334V209.055ZM1369.95 204.978C1370.31 205.097 1370.67 205.337 1371.03 205.457V207.136L1369.95 206.057V204.978ZM1371.03 208.216V210.975C1370.67 210.855 1370.31 210.735 1369.95 210.615V207.136L1371.03 208.216ZM1369.12 204.618V205.097L1368.28 204.258C1368.52 204.378 1368.88 204.498 1369.12 204.618ZM1368.04 205.217L1369.12 206.297V210.255C1368.76 210.135 1368.4 210.015 1368.04 209.775V205.217ZM1366.12 203.418C1366.24 203.418 1366.24 203.418 1366.24 203.538L1367.2 204.378V209.535C1366.84 209.415 1366.48 209.295 1366.12 209.055V203.418ZM1364.32 202.579C1364.68 202.699 1365.04 202.819 1365.4 203.058V208.696C1365.04 208.576 1364.68 208.456 1364.32 208.216V202.579ZM1362.4 201.859C1362.76 201.979 1363.12 202.099 1363.48 202.339V207.976C1363.12 207.856 1362.76 207.736 1362.4 207.496V201.859ZM1360.48 201.139C1360.84 201.259 1361.2 201.499 1361.56 201.619V207.256C1361.2 207.136 1360.84 207.016 1360.48 206.777V201.139ZM1359.64 200.78V206.537C1359.28 206.417 1358.92 206.177 1358.56 206.057V200.42C1358.92 200.42 1359.28 200.66 1359.64 200.78ZM1356.64 199.58C1357 199.7 1357.36 199.82 1357.72 200.06V205.697C1357.36 205.577 1357 205.457 1356.64 205.217V199.58ZM1354.84 198.741C1355.2 198.861 1355.56 198.981 1355.92 199.22V204.858C1355.56 204.738 1355.2 204.618 1354.84 204.378V198.741ZM1352.92 198.021C1353.28 198.141 1353.64 198.381 1354 198.501V204.138C1353.64 204.018 1353.28 203.898 1352.92 203.658V198.021ZM1352.08 197.661V203.298C1351.72 203.178 1351.36 202.939 1351 202.819V197.181C1351.36 197.421 1351.72 197.541 1352.08 197.661ZM1349.09 196.462C1349.45 196.582 1349.8 196.702 1350.16 196.942V202.579C1349.8 202.459 1349.45 202.339 1349.09 202.099V196.462ZM1348.25 196.102V201.739C1347.89 201.619 1347.53 201.499 1347.17 201.259V195.622C1347.53 195.862 1347.89 195.982 1348.25 196.102ZM1345.37 194.903C1345.73 195.022 1346.09 195.262 1346.45 195.382V201.02C1346.09 200.9 1345.73 200.78 1345.37 200.54V194.903ZM1343.45 194.063C1343.81 194.183 1344.17 194.423 1344.53 194.543V200.18C1344.17 200.06 1343.81 199.94 1343.45 199.7V194.063ZM1341.53 193.343C1341.89 193.463 1342.25 193.703 1342.61 193.823V199.46C1342.25 199.34 1341.89 199.22 1341.53 198.98V193.343ZM1339.61 192.504C1339.97 192.624 1340.33 192.864 1340.69 192.984V198.741C1340.33 198.621 1339.97 198.501 1339.61 198.261V192.504ZM1337.69 191.784C1338.05 191.904 1338.41 192.144 1338.77 192.264V198.021C1338.41 197.901 1338.05 197.661 1337.69 197.541V191.784ZM1335.89 190.945C1336.25 191.064 1336.61 191.304 1336.97 191.424V197.181C1336.61 197.061 1336.25 196.822 1335.89 196.702V190.945ZM1333.97 190.105C1334.33 190.225 1334.69 190.465 1335.05 190.585V196.342C1334.69 196.222 1334.33 195.982 1333.97 195.862V190.105ZM1332.05 189.385C1332.41 189.505 1332.77 189.625 1333.13 189.865V195.622C1332.77 195.502 1332.41 195.262 1332.05 195.142V189.385ZM1330.13 188.546C1330.49 188.666 1330.85 188.786 1331.21 189.025V194.783C1330.85 194.663 1330.49 194.423 1330.13 194.303V188.546ZM1329.3 188.186V193.823C1328.94 193.703 1328.58 193.463 1328.22 193.343V187.706C1328.58 187.946 1328.94 188.066 1329.3 188.186ZM1326.42 186.986C1326.78 187.106 1327.14 187.346 1327.5 187.466V193.103C1327.14 192.984 1326.78 192.864 1326.42 192.624V186.986ZM1325.58 186.627V192.264C1325.22 192.144 1324.86 191.904 1324.5 191.784V186.147C1324.86 186.387 1325.22 186.507 1325.58 186.627ZM1322.58 185.427C1322.94 185.547 1323.3 185.787 1323.66 185.907V191.544C1323.3 191.424 1322.94 191.184 1322.58 191.064V185.427ZM1320.66 184.588C1321.02 184.708 1321.38 184.948 1321.74 185.067V190.825C1321.38 190.705 1321.02 190.465 1320.66 190.345V184.588ZM1318.74 183.748C1319.1 183.868 1319.46 184.108 1319.82 184.228V189.985C1319.46 189.865 1319.1 189.625 1318.74 189.505V183.748ZM1316.94 182.909C1317.3 183.028 1317.66 183.268 1318.02 183.388V189.145C1317.66 189.025 1317.3 188.786 1316.94 188.666V182.909ZM1315.02 182.069C1315.38 182.189 1315.74 182.429 1316.1 182.549V188.306C1315.74 188.186 1315.38 187.946 1315.02 187.826V182.069ZM1314.18 181.709V187.466C1313.82 187.346 1313.46 187.106 1313.1 186.986V181.229C1313.46 181.349 1313.82 181.589 1314.18 181.709ZM1311.18 180.39C1311.54 180.51 1311.9 180.75 1312.26 180.87V186.627C1311.9 186.507 1311.54 186.387 1311.18 186.147V180.39ZM1309.27 179.55C1309.63 179.67 1309.98 179.91 1310.34 180.03V185.787C1309.98 185.667 1309.63 185.427 1309.27 185.307V179.55ZM1307.47 178.831C1307.83 178.951 1308.19 179.07 1308.55 179.31V185.067C1308.19 184.948 1307.83 184.828 1307.47 184.588V178.831ZM1305.55 177.991C1305.91 178.111 1306.27 178.351 1306.63 178.471V184.228C1306.27 184.108 1305.91 183.868 1305.55 183.748V177.991ZM1303.63 177.151C1303.99 177.271 1304.35 177.511 1304.71 177.631V183.388C1304.35 183.268 1303.99 183.028 1303.63 182.909V177.151ZM1301.71 176.312C1302.07 176.432 1302.43 176.552 1302.79 176.792V182.549C1302.43 182.429 1302.07 182.189 1301.71 182.069V176.312ZM1293.79 171.874L1291.03 178.111L1288.4 177.031L1289.72 173.913L1291.03 170.795L1293.79 171.874ZM1270.88 161.559C1277.36 164.558 1283.84 167.436 1290.31 170.315L1289.12 173.193L1268.97 163.838L1268.73 163.718L1270.88 161.559ZM1265.25 165.997L1253.49 177.751C1250.73 176.432 1247.98 175.112 1245.22 173.793L1265.25 165.997ZM1244.14 173.313C1243.18 172.834 1242.34 172.474 1241.38 171.994L1247.14 158.201L1248.46 155.082L1267.29 163.838L1266.69 164.438L1244.14 173.313ZM1267.17 165.277L1268.61 164.678L1277.48 188.666C1269.81 185.187 1262.13 181.709 1254.33 178.111L1267.17 165.277ZM1249.89 151.724C1256.61 154.963 1263.33 158.081 1270.04 161.199L1267.89 163.358L1248.7 154.483L1249.89 151.724ZM1247.74 150.765C1248.22 151.005 1248.7 151.244 1249.18 151.484L1247.86 154.483L1246.54 157.601L1243.78 156.402L1246.42 150.165L1247.74 150.765ZM1245.7 149.805L1244.5 152.564L1224.47 142.729L1204.2 132.774L1205.64 130.015C1218.83 136.852 1232.26 143.448 1245.7 149.805ZM1198.8 141.889L1196.52 139.73L1198.68 135.292L1201.32 136.612L1198.8 141.889ZM1203.84 133.613L1223.27 143.088L1205.76 148.846L1199.4 142.489L1203.84 133.613ZM1198.92 143.328L1204.8 149.205L1198.56 151.244C1197.6 150.765 1196.64 150.285 1195.68 149.805L1198.92 143.328ZM1205.52 149.805L1215.11 159.4C1209.95 156.882 1204.8 154.363 1199.64 151.724L1205.52 149.805ZM1206.36 149.565L1223.99 143.688L1233.22 168.156C1227.95 165.637 1222.67 162.999 1217.27 160.48L1206.36 149.565ZM1204.8 129.895L1201.8 135.892L1199.16 134.573L1200.48 131.814C1200.6 131.814 1200.72 131.694 1200.84 131.574C1200.96 131.454 1200.84 131.334 1200.84 131.214L1202.28 128.456L1204.8 129.895ZM1168.7 112.984C1168.82 113.103 1169.06 113.103 1169.3 112.984C1169.42 112.864 1169.42 112.624 1169.3 112.384L1167.38 110.465C1178.65 116.342 1190.04 122.219 1201.44 127.976L1200 130.735L1160.42 110.225L1161.86 107.466C1162.94 108.066 1163.9 108.546 1164.98 109.025L1168.7 112.984ZM1158.38 114.183C1158.38 114.183 1158.5 114.183 1158.5 114.063L1160.06 111.064L1175.65 119.1C1175.53 119.1 1175.53 119.1 1175.41 119.22C1175.29 119.34 1175.29 119.58 1175.41 119.82L1177.09 121.499L1154.42 128.576C1153.46 128.096 1152.5 127.616 1151.54 127.016L1158.38 114.183ZM1158.02 113.343L1155.38 112.024L1158.5 106.027L1161.14 107.346L1158.02 113.343ZM1176.37 119.58L1179.13 121.019L1178.05 121.379L1176.37 119.58ZM1177.81 122.219L1181.17 125.577L1187.65 145.847C1176.85 140.45 1166.18 134.813 1155.5 129.175L1177.81 122.219ZM1178.77 121.979L1179.97 121.619L1180.69 123.898L1178.77 121.979ZM1132.11 74.4828C1132.23 74.7226 1132.23 74.9625 1132.11 75.2024L1131.75 74.8426L1132.11 74.4828ZM1131.51 74.003L1131.15 74.3628L1130.79 74.003C1131.03 73.8831 1131.27 73.8831 1131.51 74.003ZM1131.15 75.4423L1131.51 75.8021C1131.27 75.922 1131.03 75.922 1130.79 75.8021L1131.15 75.4423ZM1130.19 74.4828L1130.55 74.8426L1130.19 75.2024C1130.07 75.0825 1130.07 74.7226 1130.19 74.4828ZM1125.4 69.8051L1127.8 72.2039L1128.76 73.1634L1129.48 73.8831C1129.12 74.4828 1129.12 75.2024 1129.48 75.8021L1128.64 76.6417C1128.52 76.7616 1128.52 77.0015 1128.64 77.2414C1128.76 77.3613 1129 77.3613 1129.24 77.2414L1130.07 76.4018C1130.67 76.7616 1131.39 76.7616 1131.99 76.4018L1132.71 77.2414L1133.55 78.081L1133.07 78.5607L1133.79 79.2804L1134.27 78.8006L1134.51 79.0405L1136.07 80.5997L1162.94 107.466C1161.5 106.747 1159.94 105.907 1158.5 105.187C1158.38 105.187 1158.38 105.187 1158.26 105.187L1151.78 101.709C1145.19 98.1109 1138.59 94.5127 1131.99 90.9145C1132.59 89.955 1132.59 88.9955 1131.75 88.036L1131.03 88.6357C1131.27 88.9955 1131.51 89.2354 1131.51 89.7151C1131.51 89.955 1131.39 90.3148 1131.27 90.5547C1130.31 90.075 1129.36 89.4753 1128.52 88.9955C1128.52 88.5157 1128.52 88.036 1128.64 87.4363C1128.76 85.7571 1128.64 84.5577 1128.04 83.958L1125.04 86.9565C1123.96 86.3568 1122.88 85.7571 1121.8 85.1574H1121.92C1122.04 85.0375 1122.04 84.6777 1121.92 84.5577C1121.8 84.4378 1121.44 84.4378 1121.32 84.5577L1121.08 84.7976C1117.84 82.9985 1114.6 81.1994 1111.36 79.4003L1117.96 72.8036L1123 67.7661L1125.4 69.8051ZM1150.82 102.669L1150.22 103.868V102.309C1150.34 102.429 1150.58 102.549 1150.82 102.669ZM1149.39 101.829V105.307L1148.31 107.226V101.229C1148.67 101.469 1149.03 101.709 1149.39 101.829ZM1147.47 100.87V106.867C1147.11 106.627 1146.75 106.507 1146.39 106.267V100.27C1146.75 100.39 1147.11 100.63 1147.47 100.87ZM1145.55 99.7901V105.787C1145.19 105.547 1144.83 105.427 1144.47 105.187V99.1904C1144.83 99.4303 1145.19 99.5502 1145.55 99.7901ZM1143.63 98.7106V104.708C1143.27 104.468 1142.91 104.348 1142.55 104.108V98.1109C1142.91 98.3508 1143.27 98.5907 1143.63 98.7106ZM1141.71 97.7511V103.748C1141.35 103.508 1140.99 103.388 1140.63 103.148V97.1514C1140.99 97.3913 1141.35 97.5112 1141.71 97.7511ZM1139.91 96.6717V102.669C1139.55 102.429 1139.19 102.309 1138.83 102.069V96.072C1139.19 96.3118 1139.55 96.5517 1139.91 96.6717ZM1137.99 95.7122V101.709C1137.63 101.469 1137.27 101.349 1136.91 101.109V95.1124C1137.27 95.2324 1137.63 95.4723 1137.99 95.7122ZM1136.07 94.6327V100.63C1135.71 100.39 1135.35 100.27 1134.99 100.03V94.033C1135.35 94.2729 1135.71 94.3928 1136.07 94.6327ZM1134.15 99.5502C1133.79 99.3103 1133.43 99.1904 1133.07 98.9505V92.9535C1133.43 93.1934 1133.79 93.3133 1134.15 93.5532V99.5502ZM1132.23 92.5937V98.5907C1131.87 98.3508 1131.51 98.2309 1131.15 97.991V91.994C1131.51 92.2339 1131.87 92.3538 1132.23 92.5937ZM1130.43 91.8741V97.5112C1130.07 97.2714 1129.72 97.1514 1129.36 96.9115V91.8741C1129.6 91.8741 1129.84 91.994 1130.07 91.994C1130.19 91.994 1130.31 91.994 1130.43 91.8741ZM1125.88 87.1964L1127.8 85.2774C1127.92 85.6372 1127.92 85.997 1127.92 86.3568L1127.8 87.4363C1127.8 87.6762 1127.8 87.916 1127.8 88.1559C1127.08 87.916 1126.48 87.5562 1125.88 87.1964ZM1126.6 89.3553V95.3523C1126.24 95.1124 1125.88 94.9925 1125.52 94.7526V88.7556C1125.88 88.9955 1126.24 89.2354 1126.6 89.3553ZM1127.44 89.8351C1127.56 89.8351 1127.68 89.955 1127.8 89.955C1127.8 90.075 1127.8 90.1949 1127.8 90.1949C1127.92 90.6747 1128.16 91.0345 1128.4 91.2744C1128.4 91.2744 1128.52 91.2744 1128.52 91.3943V96.4318C1128.16 96.1919 1127.8 96.072 1127.44 95.8321V89.8351ZM1124.68 91.1544L1123.6 90.075V87.6762C1123.96 87.916 1124.32 88.036 1124.68 88.2759V91.1544ZM1124.68 92.2339V94.3928C1124.32 94.1529 1123.96 94.033 1123.6 93.7931V91.2744L1124.56 92.2339H1124.68ZM1121.8 88.2759V86.7166C1122.16 86.9565 1122.52 87.0765 1122.88 87.3163V89.3553L1121.8 88.2759ZM1122.76 90.4348V93.3133C1122.4 93.0735 1122.04 92.9535 1121.68 92.7136V89.3553L1122.76 90.4348ZM1120.12 86.5967L1120.6 86.1169C1120.72 86.2369 1120.84 86.2369 1120.96 86.3568V87.5562L1120.12 86.5967ZM1120.96 88.5157V92.2339C1120.6 91.994 1120.24 91.8741 1119.88 91.6342V88.1559L1120 88.036V87.5562L1120.96 88.5157ZM1119.04 87.5562V91.1544C1118.68 90.9145 1118.32 90.7946 1117.96 90.5547V88.7556L1119.04 87.5562ZM1117.96 87.5562V85.6372L1118.92 86.5967L1117.96 87.5562ZM1119.04 85.5172L1118.32 84.7976C1118.56 84.9175 1118.8 85.0375 1119.04 85.2774V85.5172ZM1116.04 89.4753V83.7181L1117.12 84.7976V88.3958L1116.04 89.4753ZM1117.12 89.4753V90.075C1117 89.955 1116.88 89.955 1116.76 89.8351L1117.12 89.4753ZM1115.2 83.1184V89.1154C1114.84 88.8756 1114.48 88.7556 1114.12 88.5157V82.5187C1114.48 82.6387 1114.84 82.8786 1115.2 83.1184ZM1113.4 82.039V88.036C1113.04 87.7961 1112.68 87.6762 1112.32 87.4363V81.4393C1112.68 81.5592 1113.04 81.7991 1113.4 82.039ZM1111.48 80.9595V86.9565C1111.12 86.7166 1110.76 86.5967 1110.4 86.3568V80.3598C1110.76 80.4798 1111.12 80.7196 1111.48 80.9595ZM1117.12 50.7346L1112.32 55.5322L1108.85 52.054L1113.64 47.2564L1117.12 50.7346ZM1110.4 44.018L1108.25 46.1769L1105.85 43.7781L1068.67 6.5967L1070.82 4.43778L1110.4 44.018ZM1105.01 44.018L1104.29 44.7376L1067.35 7.91604L1068.07 7.1964L1105.01 44.018ZM1068.07 1.67916L1070.1 3.83808L1068.07 5.997L1065.91 3.83808L1068.07 1.67916ZM1063.39 6.47676L1065.55 4.31784L1067.71 6.47676L1065.55 8.63568L1063.39 6.47676ZM1080.78 23.988L1073.94 17.1514L1067.11 10.3148L1065.91 9.11544L1066.63 8.3958L1103.57 45.3373L1102.85 46.057L1080.78 23.988ZM1103.57 46.6567L1105.73 44.4977L1107.89 46.6567L1105.73 48.8156L1103.57 46.6567ZM1106.21 49.4153L1108.61 47.0165L1111 44.6177L1113.04 46.7766L1108.25 51.5742L1106.21 49.4153ZM1103.57 57.4513L1108.37 52.6537L1111.84 56.1319L1107.05 60.9295L1103.57 57.4513ZM1107.53 61.4093L1112.32 56.6117L1114.24 58.5307C1114.36 58.6507 1114.6 58.6507 1114.84 58.5307C1114.96 58.4108 1114.96 58.051 1114.84 57.931L1112.92 56.012L1117.72 51.2144L1122.52 56.012L1118.32 60.2099C1118.2 60.3298 1118.2 60.5697 1118.32 60.8096C1118.44 60.9295 1118.8 60.9295 1118.92 60.8096L1123.12 56.6117L1127.92 61.4093L1123.12 66.2069L1121.68 64.7676C1121.56 64.6477 1121.2 64.6477 1121.08 64.7676C1120.96 64.8876 1120.96 65.1274 1121.08 65.3673L1122.52 66.8066L1117.72 71.6042L1112.68 66.5667L1107.53 61.4093ZM1104.17 75.5622L1111.96 67.7661L1112.32 67.4063L1117.12 72.2039L1105.01 84.1979L1098.89 80.7196L1104.17 75.5622ZM1109.57 80.8396V85.8771C1109.21 85.6372 1108.85 85.5172 1108.49 85.2774V81.919L1109.57 80.8396ZM1107.65 82.7586V84.7976C1107.29 84.5577 1106.93 84.4378 1106.57 84.1979V83.8381L1107.65 82.7586ZM1018.05 32.024L1021.65 26.2669L1024.17 27.8261L1020.57 33.5832C1019.73 32.9835 1018.89 32.5037 1018.05 32.024ZM1021.17 34.063L1024.77 28.3058C1048.4 43.1784 1072.26 57.5712 1096.37 71.4843L1093.01 77.3613C1068.79 63.3283 1044.92 48.9355 1021.17 34.063ZM1093.73 77.7211L1097.09 71.8441L1099.61 73.2834L1096.25 79.1604C1095.41 78.6807 1094.57 78.2009 1093.73 77.7211ZM1096.97 79.6402L1100.33 73.7631L1103.21 75.4423L1098.29 80.3598C1097.81 80.1199 1097.45 79.8801 1096.97 79.6402ZM1087.86 91.7541L1098.29 81.3193C1099.73 82.1589 1101.29 82.9985 1102.73 83.8381L1104.77 85.0375C1108.13 86.9565 1111.6 88.8756 1115.08 90.7946C1115.08 90.7946 1115.08 90.7946 1115.2 90.7946C1125.88 96.7916 1136.67 102.789 1147.47 108.546L1140.75 121.139C1123.12 111.664 1105.49 101.829 1087.86 91.7541ZM1141.59 121.619L1151.9 102.309L1157.78 105.547L1147.47 124.738C1145.55 123.778 1143.63 122.699 1141.59 121.619ZM1148.19 125.337L1154.9 112.744L1157.54 114.183L1150.82 126.777C1149.98 126.177 1149.15 125.697 1148.19 125.337ZM1151.18 127.856C1151.9 128.216 1152.62 128.576 1153.34 129.055L1149.98 130.135L1151.18 127.856ZM1150.34 130.735L1154.42 129.535C1165.58 135.412 1176.73 141.169 1188.01 146.927L1189.33 151.005L1150.34 130.735ZM1190.04 150.645L1188.97 147.286C1189.69 147.646 1190.4 148.006 1191.12 148.366L1190.04 150.645ZM1191.6 147.766C1190.64 147.286 1189.69 146.807 1188.73 146.327L1182.37 126.777C1182.49 126.897 1182.73 126.897 1182.85 126.777C1182.97 126.657 1182.97 126.417 1182.85 126.177L1181.89 125.217L1180.81 121.979L1199.64 131.694L1198.2 134.693L1195.92 139.25L1189.69 133.013C1189.57 132.894 1189.21 132.894 1189.09 133.013C1188.97 133.133 1188.97 133.493 1189.09 133.613L1195.56 139.97L1191.6 147.766ZM1192.32 148.126L1196.16 140.45L1198.44 142.729L1195.08 149.445C1194.12 148.966 1193.16 148.606 1192.32 148.126ZM1195.32 150.525C1196.04 150.885 1196.76 151.244 1197.48 151.604L1194.12 152.684L1195.32 150.525ZM1194.48 153.523L1198.56 152.204C1204.68 155.202 1210.79 158.201 1216.79 161.199L1223.15 167.436C1223.27 167.556 1223.51 167.556 1223.75 167.436C1223.87 167.316 1223.87 166.957 1223.75 166.837L1219.07 162.159C1223.87 164.558 1228.79 166.837 1233.58 169.115L1235.14 173.193L1194.48 153.523ZM1235.98 173.073L1234.78 169.835C1235.5 170.195 1236.22 170.555 1236.94 170.795L1235.98 173.073ZM1237.18 170.075C1236.22 169.595 1235.26 169.235 1234.3 168.756L1225.07 144.048L1244.26 153.403L1237.18 170.075ZM1237.9 170.435L1243.42 157.241L1246.18 158.441L1240.66 171.754C1239.7 171.274 1238.86 170.795 1237.9 170.435ZM1241.02 172.834C1241.74 173.193 1242.34 173.433 1243.06 173.793L1240.06 174.992L1241.02 172.834ZM1250.73 180.51L1240.42 175.712L1244.14 174.273C1247.02 175.592 1250.01 177.031 1252.89 178.351L1250.73 180.51ZM1251.57 180.87L1253.73 178.711C1261.77 182.429 1269.81 186.147 1277.84 189.745L1279.28 193.703L1251.57 180.87ZM1280 193.343L1278.8 190.225C1279.52 190.585 1280.24 190.825 1280.96 191.184L1280 193.343ZM1281.32 190.465C1280.36 189.985 1279.4 189.625 1278.44 189.145L1269.45 164.918L1288.64 173.793L1281.32 190.465ZM1284.8 192.024C1283.84 191.544 1283 191.184 1282.04 190.825L1287.92 177.751L1290.67 178.951L1284.8 192.024ZM1285.64 192.384L1291.39 179.07C1291.51 179.07 1291.63 178.951 1291.63 178.831L1294.39 172.234L1297.99 173.793C1298.83 174.153 1299.79 174.633 1300.63 174.992L1297.99 180.87L1291.63 195.022L1285.64 192.384ZM1300.87 176.432V181.709C1300.51 181.589 1300.15 181.349 1299.79 181.229V178.831L1300.87 176.432ZM1299.07 180.63V180.87C1299.07 180.87 1299.07 180.87 1298.95 180.87L1299.07 180.63ZM1293.31 194.903C1293.07 194.783 1292.95 194.783 1292.71 194.663L1293.31 193.343V194.903ZM1295.23 195.742C1294.87 195.622 1294.51 195.382 1294.15 195.262V191.544L1294.87 189.865C1294.99 189.865 1295.11 189.985 1295.23 189.985V195.742ZM1297.15 196.582C1296.79 196.462 1296.43 196.222 1296.07 196.102V190.345C1296.43 190.465 1296.79 190.705 1297.15 190.825V196.582ZM1299.19 198.381C1298.71 198.141 1298.23 197.901 1297.75 197.781C1298.11 197.901 1298.59 198.141 1299.19 198.381C1299.19 198.261 1299.19 198.261 1299.19 198.381ZM1297.99 196.942V191.184C1298.35 191.304 1298.71 191.544 1299.07 191.664V197.421C1298.71 197.181 1298.35 197.061 1297.99 196.942ZM1300.99 199.1C1300.51 198.861 1299.91 198.621 1299.43 198.381C1300.03 198.741 1300.51 198.861 1300.99 199.1ZM1299.79 197.781V192.024C1300.15 192.144 1300.51 192.384 1300.87 192.504V198.141C1300.51 198.021 1300.15 197.901 1299.79 197.781ZM1301.35 199.34C1301.35 199.34 1301.35 199.22 1301.35 199.34C1301.95 199.58 1302.43 199.82 1302.91 199.94C1302.43 199.82 1301.83 199.58 1301.35 199.34ZM1301.71 192.864C1302.07 192.984 1302.43 193.223 1302.79 193.343V198.98C1302.43 198.861 1302.07 198.621 1301.71 198.501V192.864ZM1303.15 200.06C1303.15 200.06 1303.15 200.18 1303.15 200.06C1303.27 200.18 1303.27 200.06 1303.15 200.06C1303.75 200.3 1304.23 200.54 1304.83 200.78C1304.23 200.54 1303.75 200.3 1303.15 200.06ZM1303.63 193.703C1303.99 193.823 1304.35 193.943 1304.71 194.183V199.82C1304.35 199.7 1303.99 199.46 1303.63 199.34V193.703ZM1305.19 200.9C1305.79 201.139 1306.27 201.379 1306.75 201.499C1306.15 201.379 1305.67 201.139 1305.19 200.9ZM1305.55 200.18V194.543C1305.91 194.663 1306.27 194.903 1306.63 195.022V200.66C1306.27 200.54 1305.91 200.3 1305.55 200.18ZM1306.99 201.739C1307.59 201.979 1308.07 202.219 1308.55 202.459C1308.07 202.219 1307.59 201.979 1306.99 201.739ZM1307.47 201.02V195.382C1307.83 195.502 1308.19 195.742 1308.55 195.862V201.499C1308.19 201.379 1307.83 201.139 1307.47 201.02ZM1308.91 202.579C1309.51 202.819 1309.98 203.058 1310.46 203.178C1309.98 203.058 1309.51 202.819 1308.91 202.579ZM1309.27 201.859V196.222C1309.63 196.342 1309.98 196.582 1310.34 196.702V202.339C1309.98 202.099 1309.63 201.979 1309.27 201.859ZM1312.38 204.018C1311.9 203.778 1311.3 203.538 1310.82 203.298C1311.3 203.538 1311.9 203.778 1312.38 204.018ZM1311.18 202.579V196.942C1311.54 197.061 1311.9 197.301 1312.26 197.421V203.058C1311.9 202.939 1311.54 202.819 1311.18 202.579ZM1312.74 204.138C1312.98 204.258 1313.22 204.378 1313.58 204.498C1313.22 204.378 1312.98 204.258 1312.74 204.138ZM1313.1 203.418V197.781C1313.46 197.901 1313.82 198.141 1314.18 198.261V203.898C1313.82 203.778 1313.46 203.658 1313.1 203.418ZM1314.66 204.978C1315.02 205.097 1315.38 205.217 1315.74 205.457C1315.26 205.337 1314.9 205.097 1314.66 204.978ZM1316.1 204.738C1315.74 204.618 1315.38 204.498 1315.02 204.258V198.621C1315.38 198.741 1315.74 198.981 1316.1 199.1V204.738ZM1318.02 205.577C1317.66 205.457 1317.3 205.217 1316.94 205.097V199.46C1317.3 199.58 1317.66 199.82 1318.02 199.94V205.577ZM1319.82 206.417C1319.46 206.297 1319.1 206.177 1318.74 205.937V200.18C1319.1 200.3 1319.46 200.54 1319.82 200.66V206.417ZM1320.66 206.777V201.02C1321.02 201.139 1321.38 201.379 1321.74 201.499V207.256C1321.38 207.016 1321.02 206.897 1320.66 206.777ZM1323.66 207.976C1323.3 207.856 1322.94 207.616 1322.58 207.496V201.739C1322.94 201.859 1323.3 202.099 1323.66 202.219V207.976ZM1325.58 208.816C1325.22 208.696 1324.86 208.456 1324.5 208.336V202.579C1324.86 202.699 1325.22 202.939 1325.58 203.058V208.816ZM1327.5 209.535C1327.14 209.415 1326.78 209.295 1326.42 209.055V203.298C1326.78 203.418 1327.14 203.658 1327.5 203.778V209.535ZM1329.3 210.375C1328.94 210.255 1328.58 210.135 1328.22 209.895V204.258C1328.58 204.378 1328.94 204.498 1329.3 204.738V210.375ZM1331.21 211.094C1330.85 210.975 1330.49 210.735 1330.13 210.615V204.978C1330.49 205.097 1330.85 205.337 1331.21 205.457V211.094ZM1333.13 211.934C1332.77 211.814 1332.41 211.694 1332.05 211.454V205.817C1332.41 205.937 1332.77 206.177 1333.13 206.297V211.934ZM1335.17 213.613C1334.69 213.373 1334.21 213.253 1333.73 213.014C1334.21 213.253 1334.69 213.373 1335.17 213.613ZM1333.97 212.294V206.657C1334.33 206.777 1334.69 207.016 1335.05 207.136V212.774C1334.69 212.534 1334.33 212.414 1333.97 212.294ZM1336.97 214.453C1336.49 214.213 1335.89 213.973 1335.41 213.853C1336.01 213.973 1336.49 214.213 1336.97 214.453ZM1335.89 213.014V207.376C1336.25 207.496 1336.61 207.616 1336.97 207.856V213.493C1336.61 213.373 1336.25 213.133 1335.89 213.014ZM1338.89 215.172C1338.41 214.933 1337.81 214.693 1337.33 214.573C1337.93 214.813 1338.41 214.933 1338.89 215.172ZM1337.69 213.853V208.216C1338.05 208.336 1338.41 208.456 1338.77 208.696V214.333C1338.41 214.093 1338.05 213.973 1337.69 213.853ZM1340.81 216.012C1340.33 215.772 1339.73 215.532 1339.25 215.412C1339.73 215.532 1340.33 215.772 1340.81 216.012ZM1339.61 214.573V208.936C1339.97 209.055 1340.33 209.175 1340.69 209.415V215.052C1340.33 214.933 1339.97 214.693 1339.61 214.573ZM1341.17 216.132C1341.65 216.372 1342.13 216.492 1342.73 216.732C1342.13 216.492 1341.65 216.372 1341.17 216.132ZM1341.53 215.412V209.775C1341.89 209.895 1342.25 210.015 1342.61 210.255V215.892C1342.25 215.652 1341.89 215.532 1341.53 215.412ZM1344.53 216.612C1344.17 216.492 1343.81 216.372 1343.45 216.132V210.495C1343.81 210.615 1344.17 210.735 1344.53 210.975V216.612ZM1346.45 217.451C1346.09 217.331 1345.73 217.091 1345.37 216.972V211.334C1345.73 211.454 1346.09 211.574 1346.45 211.814V217.451ZM1348.25 218.171C1347.89 218.051 1347.53 217.811 1347.17 217.691V212.054C1347.53 212.174 1347.89 212.294 1348.25 212.534V218.171ZM1350.16 219.01C1349.8 218.891 1349.45 218.651 1349.09 218.531V212.894C1349.45 213.013 1349.8 213.253 1350.16 213.373V219.01ZM1352.08 219.73C1351.72 219.61 1351.36 219.49 1351 219.25V213.613C1351.36 213.733 1351.72 213.853 1352.08 214.093V219.73ZM1354 220.57C1353.64 220.45 1353.28 220.21 1352.92 220.09V214.453C1353.28 214.573 1353.64 214.813 1354 214.933V220.57ZM1355.92 221.289C1355.56 221.169 1355.2 221.049 1354.84 220.81V215.172C1355.2 215.292 1355.56 215.412 1355.92 215.652V221.289ZM1357.72 222.009C1357.36 221.889 1357 221.769 1356.64 221.529V215.892C1357 216.012 1357.36 216.132 1357.72 216.372V222.009ZM1359.64 222.849C1359.28 222.729 1358.92 222.609 1358.56 222.369V216.732C1358.92 216.852 1359.28 216.972 1359.64 217.211V222.849ZM1361.56 223.568C1361.2 223.448 1360.84 223.208 1360.48 223.088V217.451C1360.84 217.571 1361.2 217.811 1361.56 217.931V223.568ZM1363.48 224.288C1363.12 224.168 1362.76 224.048 1362.4 223.808V218.171C1362.76 218.291 1363.12 218.411 1363.48 218.651V224.288ZM1365.4 225.008C1365.04 224.888 1364.68 224.768 1364.32 224.648V219.01C1364.68 219.13 1365.04 219.25 1365.4 219.49V225.008ZM1367.2 225.727C1366.84 225.607 1366.48 225.487 1366.12 225.247V219.61C1366.48 219.73 1366.84 219.85 1367.2 220.09V225.727ZM1369.12 226.567C1368.76 226.447 1368.4 226.327 1368.04 226.087V220.45C1368.4 220.57 1368.76 220.69 1369.12 220.93V226.567ZM1371.03 227.286C1370.67 227.166 1370.31 227.046 1369.95 226.807V221.169C1370.31 221.289 1370.67 221.529 1371.03 221.649V227.286ZM1373.07 228.966C1372.83 228.846 1372.59 228.726 1372.35 228.606C1372.47 228.726 1372.71 228.846 1373.07 228.966ZM1371.87 227.526V221.889C1372.23 222.009 1372.59 222.129 1372.95 222.369V228.006C1372.59 227.886 1372.23 227.766 1371.87 227.526ZM1373.43 229.085C1373.91 229.205 1374.51 229.445 1374.99 229.685C1374.39 229.445 1373.91 229.325 1373.43 229.085ZM1373.79 228.366V222.729C1374.15 222.849 1374.51 222.969 1374.87 223.208V228.846C1374.51 228.606 1374.03 228.486 1373.79 228.366ZM1295.59 188.426L1298.35 182.189C1324.74 193.823 1351.72 205.097 1378.59 215.652L1379.79 216.852L1375.11 221.529C1348.37 211.094 1321.62 199.94 1295.59 188.426ZM1376.67 229.445C1376.31 229.325 1375.95 229.205 1375.59 228.966V223.328L1376.67 224.408V229.445ZM1378.59 230.285C1378.47 230.285 1378.35 230.165 1378.23 230.165L1378.59 229.925V230.285ZM1378.59 228.726L1377.51 229.805V225.367L1378.59 226.447V228.726ZM1380.51 231.005C1380.15 230.885 1379.79 230.765 1379.43 230.525V228.966L1380.27 228.126L1380.51 228.366V231.005ZM1379.43 227.886V227.286L1379.67 227.526L1379.43 227.886ZM1382.43 231.724C1382.07 231.604 1381.71 231.364 1381.35 231.244V229.085L1382.43 230.165V231.724ZM1384.23 232.444C1383.87 232.324 1383.51 232.204 1383.15 231.964V231.005L1384.23 232.084V232.444ZM1380.87 227.526C1380.99 227.406 1380.99 227.166 1380.87 227.046C1380.75 226.927 1380.51 226.927 1380.39 227.046L1375.59 222.249L1380.39 217.451L1382.79 219.85L1385.79 222.849C1385.91 222.969 1386.15 222.969 1386.39 222.849C1386.51 222.729 1386.51 222.489 1386.39 222.249L1383.39 219.25L1380.99 216.852L1385.79 212.054L1390.58 216.852L1387.23 220.21C1387.11 220.33 1387.11 220.69 1387.23 220.81C1387.35 220.93 1387.59 220.93 1387.83 220.81L1391.18 217.451L1391.42 217.691L1395.74 222.009L1395.98 222.249L1385.79 232.444L1380.87 227.526ZM1386.15 233.283C1386.03 233.283 1386.03 233.283 1385.91 233.163L1386.15 232.924V233.283ZM1386.99 233.523V232.084L1388.07 231.005V233.883C1387.71 233.883 1387.35 233.643 1386.99 233.523ZM1389.98 234.723C1389.63 234.603 1389.27 234.483 1388.91 234.363V230.285L1389.98 229.205V234.723ZM1391.9 235.442C1391.54 235.322 1391.18 235.202 1390.82 235.082V229.445C1391.18 229.565 1391.54 229.685 1391.9 229.805V235.442ZM1393.7 236.162C1393.34 236.042 1392.98 235.922 1392.62 235.682V230.045C1392.74 230.165 1392.86 230.165 1393.1 230.165L1393.34 230.405L1393.7 230.765V236.162ZM1395.62 236.882C1395.26 236.762 1394.9 236.642 1394.54 236.522V231.844L1395.62 232.924V236.882ZM1395.62 231.604L1394.9 230.885C1395.14 231.005 1395.38 231.005 1395.62 231.124V231.604ZM1396.46 237.121V233.643L1397.54 234.723V237.601C1397.18 237.361 1396.82 237.241 1396.46 237.121ZM1396.46 232.444V231.484C1396.82 231.604 1397.18 231.724 1397.54 231.844V233.403L1396.46 232.444ZM1398.38 237.841V235.562L1399.22 236.522L1399.46 236.642V238.321C1399.1 238.081 1398.74 237.961 1398.38 237.841ZM1399.46 235.442L1398.38 234.363V232.204C1398.74 232.324 1399.1 232.444 1399.46 232.564V235.442ZM1401.38 238.921C1401.02 238.801 1400.66 238.681 1400.3 238.561V237.481L1401.38 238.561V238.921ZM1401.38 237.361L1400.3 236.282V233.043C1400.66 233.163 1401.02 233.283 1401.38 233.403V237.361ZM1403.18 239.28L1402.1 238.201V233.763C1402.46 233.883 1402.82 234.003 1403.18 234.123V239.28ZM1405.1 240.36C1404.74 240.24 1404.38 240.12 1404.02 240V234.483C1404.38 234.603 1404.74 234.723 1405.1 234.843V240.36ZM1407.02 241.079C1406.66 240.96 1406.3 240.84 1405.94 240.72V235.082C1406.3 235.202 1406.66 235.322 1407.02 235.442V241.079ZM1408.94 241.799C1408.58 241.679 1408.22 241.559 1407.86 241.319V235.802C1408.22 235.922 1408.58 236.042 1408.94 236.162V241.799ZM1410.85 242.519C1410.49 242.399 1410.13 242.279 1409.78 242.039V236.522C1410.13 236.642 1410.49 236.762 1410.85 236.882V242.519ZM1411.57 242.759V237.241C1411.93 237.361 1412.29 237.481 1412.65 237.601V243.238C1412.29 243.118 1411.93 242.998 1411.57 242.759ZM1414.57 243.958C1414.21 243.838 1413.85 243.718 1413.49 243.598V238.081C1413.85 238.201 1414.21 238.321 1414.57 238.441V243.958ZM1416.49 244.678C1416.13 244.558 1415.77 244.438 1415.41 244.318V238.681C1415.77 238.801 1416.13 238.921 1416.49 239.04V244.678ZM1418.41 245.397C1418.05 245.277 1417.69 245.157 1417.33 245.037V239.4C1417.69 239.52 1418.05 239.64 1418.41 239.76V245.397ZM1391.3 227.886L1396.58 222.609C1405.58 226.087 1414.81 229.445 1423.81 232.804L1421.53 239.16C1411.45 235.562 1401.38 231.724 1391.3 227.886ZM1419.25 240.12C1419.61 240.24 1419.97 240.36 1420.33 240.48V242.399L1419.25 245.397V240.12ZM1425.97 226.447V226.687L1424.89 229.685V226.087C1425.25 226.087 1425.61 226.327 1425.97 226.447ZM1424.65 232.684L1424.89 231.964L1427.05 225.967L1433.4 228.246L1425.97 248.876L1423.57 247.916C1422.25 247.436 1420.93 246.957 1419.61 246.477L1419.73 246.117L1422.01 239.76L1424.65 232.684C1424.65 232.804 1424.65 232.804 1424.65 232.684ZM1422.97 225.367C1423.33 225.487 1423.69 225.607 1424.05 225.727V231.364C1423.69 231.244 1423.33 231.124 1422.97 230.885V225.367ZM1422.13 225.008V230.645C1421.77 230.525 1421.41 230.405 1421.05 230.285V224.648C1421.41 224.768 1421.77 224.888 1422.13 225.008ZM1420.33 224.288V229.925C1419.97 229.805 1419.61 229.685 1419.25 229.565V223.928C1419.61 224.048 1419.97 224.168 1420.33 224.288ZM1417.33 223.208C1417.69 223.328 1418.05 223.448 1418.41 223.568V229.205C1418.05 229.085 1417.69 228.966 1417.33 228.846V223.208ZM1415.41 222.489C1415.77 222.609 1416.13 222.729 1416.49 222.849V228.486C1416.13 228.366 1415.77 228.246 1415.41 228.126V222.489ZM1413.49 221.769C1413.85 221.889 1414.21 222.009 1414.57 222.129V227.766C1414.21 227.646 1413.85 227.526 1413.49 227.406V221.769ZM1411.57 221.049C1411.93 221.169 1412.29 221.289 1412.65 221.409V227.046C1412.29 226.927 1411.93 226.807 1411.57 226.687V221.049ZM1409.78 220.33C1410.13 220.45 1410.49 220.57 1410.85 220.81V226.447C1410.49 226.327 1410.13 226.207 1409.78 226.087V220.33ZM1407.86 219.61C1408.22 219.73 1408.58 219.85 1408.94 220.09V225.607C1408.58 225.487 1408.22 225.367 1407.86 225.247V219.61ZM1405.94 218.891C1406.3 219.01 1406.66 219.13 1407.02 219.25V224.888C1406.66 224.768 1406.3 224.648 1405.94 224.528V218.891ZM1404.02 218.291C1404.38 218.411 1404.74 218.531 1405.1 218.651V224.288C1404.74 224.168 1404.38 224.048 1404.02 223.808V218.291ZM1403.18 217.931V223.568C1402.82 223.448 1402.46 223.328 1402.1 223.208V217.571C1402.46 217.691 1402.82 217.811 1403.18 217.931ZM1403.78 213.133L1402.7 214.213V206.777L1403.78 205.697V213.133ZM1405.7 211.214L1404.62 212.294V204.858L1405.7 203.778V211.214ZM1407.62 209.295L1406.54 210.375V202.939L1407.38 202.099L1407.5 202.219V209.295H1407.62ZM1409.54 207.376L1408.46 208.456V203.058L1409.54 204.138V207.376ZM1408.46 201.979V201.139L1409.54 200.06V203.058L1408.46 201.979ZM1410.25 206.657V204.978L1411.09 205.817L1410.25 206.657ZM1410.25 203.778V199.1L1411.33 198.021V204.858L1410.25 203.778ZM1413.25 203.658L1412.17 204.738V197.301L1413.25 196.222V203.658ZM1415.17 201.739L1414.09 202.819V195.382L1415.17 194.303V201.739ZM1417.09 199.82L1416.01 200.9V193.463L1417.09 192.384V199.82ZM1419.01 198.021L1417.93 199.1V191.664L1419.01 190.585V198.021ZM1420.81 196.102L1419.73 197.181V189.745L1420.81 188.666V196.102ZM1422.73 194.183L1421.65 195.262V187.826L1422.73 186.747V194.183ZM1424.65 192.264L1423.57 193.343V185.907L1424.65 184.828V192.264ZM1426.57 190.345L1425.49 191.424V183.988L1426.57 182.909V190.345ZM1427.41 189.625V182.189L1428.49 181.109V188.546L1427.41 189.625ZM1430.28 186.627L1429.21 187.706V180.27L1430.28 179.19V186.627ZM1432.2 184.708L1431.12 185.787V179.91L1432.2 180.99V184.708ZM1433.04 183.868V181.709L1434.12 182.789L1433.04 183.868ZM1440 177.991L1435.2 182.789L1434.96 182.549L1430.64 178.231L1430.4 177.991L1435.2 173.193L1440 177.991Z" fill="white"/>
<path d="M1440 383.208L1407.38 350.585C1407.26 350.465 1406.9 350.465 1406.78 350.585C1406.66 350.705 1406.66 350.945 1406.78 351.184L1439.88 384.288V383.208H1440Z" fill="#414042"/>
<path d="M1440 102.909L1435.44 107.466C1435.32 107.586 1435.32 107.826 1435.44 108.066C1435.56 108.186 1435.8 108.186 1436.04 108.066L1440 104.108V102.909Z" fill="#414042"/>
<path d="M1178.53 0L1172.65 5.87706C1172.53 5.997 1172.53 6.23688 1172.65 6.47676C1172.77 6.5967 1173.01 6.5967 1173.25 6.47676L1179.73 0H1178.53Z" fill="#414042"/>
<path opacity="0.5" d="M1439.28 579.91L1407.26 547.886L1439.28 515.862V513.103L1405.94 546.447L1343.09 483.598L1405.94 420.75L1439.28 454.093V451.334L1407.26 419.31L1439.28 387.286V384.528L1405.94 417.871L1343.09 355.022L1405.82 292.294L1439.28 325.757V322.998L1407.14 290.855L1439.28 258.711V255.952L1405.82 289.415L1343.09 226.687L1405.94 163.838L1439.28 197.181V194.423L1407.26 162.399L1439.28 130.375V128.336L1405.94 161.679L1343.09 98.8306L1405.94 35.982L1439.28 69.3253V66.5667L1407.26 34.7826L1439.28 2.75862V0L1148.67 290.615L1147.95 291.334L1439.28 582.669V579.91ZM1404.5 291.334L1341.77 354.063L1279.04 291.334L1341.77 228.606L1404.5 291.334ZM1341.77 100.27L1404.5 163.118L1341.65 225.967L1278.8 163.118L1341.77 100.27ZM1277.6 164.438L1340.45 227.286L1277.72 290.015L1214.87 227.166L1277.6 164.438ZM1150.7 291.334L1213.55 228.486L1276.4 291.334L1213.55 354.183L1150.7 291.334ZM1214.87 355.502L1277.72 292.654L1340.45 355.382L1277.6 418.231L1214.87 355.502ZM1278.92 419.55L1341.77 356.702L1404.62 419.55L1341.77 482.399L1278.92 419.55Z" fill="white"/>
</svg>
